<svg width="54" height="60" viewBox="0 0 54 60" fill="none" xmlns="http://www.w3.org/2000/svg">
<path d="M4.29002 59.2718C4.09002 59.2018 3.90002 59.1318 3.70002 59.0618C1.95002 58.5018 0.730025 56.9717 0.690025 55.1617C0.640025 53.2517 0.670021 51.3417 0.670021 49.4317C0.670021 48.8217 1.00002 48.4818 1.53002 48.4918C2.05002 48.4918 2.37002 48.8318 2.39002 49.4418C2.41002 50.1018 2.39002 50.7517 2.40002 51.4117C2.44002 52.9817 3.52002 54.0618 5.08002 54.0618C16.27 54.0718 27.46 54.0618 38.65 54.0618C39.93 54.0618 40.74 53.2318 40.75 51.9518C40.76 50.1218 40.75 48.2818 40.75 46.4518C40.76 44.1718 42.3 42.6018 44.59 42.5718C46.38 42.5518 48.18 42.5718 49.97 42.5618C51.46 42.5618 52.23 41.8018 52.23 40.3218C52.23 33.1118 52.23 25.8917 52.23 18.6817C52.23 18.5117 52.21 18.3418 52.2 18.1018C51.15 18.1018 50.13 18.1018 49.11 18.1018C48.69 18.1018 48.26 18.1118 47.84 18.1018C47.17 18.0818 46.77 17.7418 46.78 17.2118C46.8 16.7018 47.18 16.3718 47.82 16.3718C49.05 16.3618 50.29 16.3718 51.52 16.3718C51.73 16.3718 51.93 16.3718 52.18 16.3718C52.19 16.1318 52.21 15.9418 52.21 15.7518C52.21 13.3618 52.22 10.9718 52.21 8.57176C52.21 6.74176 51.16 5.69176 49.34 5.69176C47.08 5.68176 44.83 5.69176 42.57 5.69176C42.4 5.69176 42.23 5.69176 42 5.69176C42 6.65176 41.95 7.5718 42.04 8.4818C42.06 8.7218 42.5 9.03181 42.8 9.12181C43.46 9.32181 43.81 9.63184 43.72 10.1518C43.64 10.6718 43.18 10.9418 42.52 10.8718C41.29 10.7318 40.29 9.67173 40.24 8.41173C40.21 7.53173 40.23 6.6518 40.23 5.7318C30.27 5.7318 20.38 5.7318 10.43 5.7318C10.43 6.6318 10.4 7.53174 10.45 8.42174C10.47 8.84174 10.8 9.07184 11.23 9.15184C11.93 9.27184 12.24 9.61184 12.16 10.1518C12.08 10.7018 11.62 10.9718 10.92 10.8618C9.63002 10.6718 8.70002 9.57175 8.67002 8.18175C8.65002 7.37175 8.67002 6.57172 8.67002 5.78172C7.20002 5.78172 5.77002 5.69175 4.36002 5.81175C3.34002 5.89175 2.43003 6.89184 2.41003 7.90184C2.36003 10.6918 2.39002 13.4918 2.39002 16.3718C2.67002 16.3718 2.93003 16.3718 3.19003 16.3718C16.66 16.3718 30.12 16.3718 43.59 16.3718C43.84 16.3718 44.1 16.3617 44.34 16.4117C44.8 16.5017 45.03 16.8217 45.01 17.2917C44.99 17.7317 44.74 18.0118 44.3 18.0718C44.05 18.1118 43.8 18.1018 43.55 18.1018C30.12 18.1018 16.69 18.1018 3.26002 18.1018C2.99002 18.1018 2.73002 18.1018 2.39002 18.1018C2.38002 18.3818 2.36002 18.6218 2.36002 18.8718C2.36002 27.6918 2.36002 36.5018 2.36002 45.3218C2.36002 45.5718 2.36002 45.8318 2.31002 46.0718C2.21002 46.5018 1.90002 46.7318 1.47002 46.7218C1.02002 46.7118 0.710017 46.4618 0.650017 45.9818C0.630017 45.7918 0.630028 45.5918 0.630028 45.4018C0.630028 33.1718 0.660023 20.9418 0.610023 8.71178C0.600023 5.97178 2.57002 3.84177 5.39002 3.95177C6.46002 3.99177 7.54002 3.96178 8.67002 3.96178C8.65002 2.73178 8.56002 1.52184 9.59002 0.651839C10.11 0.211839 10.71 0.0118148 11.4 0.00181482C12.44 -0.0281852 13.28 0.311737 13.9 1.17174C14.51 2.00174 14.29 2.98175 14.37 3.93175C22.99 3.93175 31.57 3.93175 40.23 3.93175C40.23 3.50175 40.22 3.08174 40.23 2.67174C40.26 1.12174 41.37 0.0318246 42.92 0.0118246C44.66 -0.0181754 45.83 1.00181 45.9 2.62181C45.92 3.04181 45.9 3.46179 45.9 3.97179C46.8 3.97179 47.67 3.9418 48.52 3.9818C49.31 4.0118 50.12 4.00177 50.87 4.20177C52.61 4.65177 53.83 6.26175 53.93 8.06175C53.94 8.29175 53.95 8.52182 53.95 8.75181C53.95 24.0118 53.94 39.2717 53.96 54.5317C53.96 56.3217 53.36 57.7317 51.81 58.6717C51.36 58.9417 50.83 59.0817 50.33 59.2817C35.01 59.2717 19.65 59.2718 4.29002 59.2718ZM52.22 45.7318C52.16 45.6918 52.11 45.6618 52.05 45.6218C51.92 45.7918 51.82 45.9818 51.67 46.1318C48.97 48.8318 46.26 51.5218 43.58 54.2418C42.53 55.3118 41.31 55.8117 39.81 55.8017C28.68 55.7817 17.55 55.7917 6.41003 55.7917C5.04003 55.7917 3.67003 55.8618 2.46003 54.9718C2.41003 56.4318 3.58002 57.5218 5.14002 57.5218C19.94 57.5218 34.74 57.5218 49.53 57.5218C51.14 57.5218 52.23 56.4518 52.24 54.8518C52.26 51.9018 52.25 48.9518 52.24 46.0018C52.25 45.9118 52.23 45.8218 52.22 45.7318ZM42.51 52.6318C45.31 49.8318 48.12 47.0217 50.84 44.3017C50.11 44.3017 49.22 44.3017 48.34 44.3017C47.03 44.3017 45.72 44.2818 44.41 44.3118C43.38 44.3318 42.54 45.1118 42.53 46.1318C42.48 48.3418 42.51 50.5318 42.51 52.6318ZM12.66 3.94176C12.53 3.20176 13.01 2.34184 12.18 1.90184C11.83 1.71184 11.17 1.74178 10.84 1.96178C10.12 2.44178 10.55 3.24176 10.43 3.94176C11.21 3.94176 11.88 3.94176 12.66 3.94176ZM44.15 3.94176C44.33 2.68176 44.24 2.04183 43.73 1.89183C43.31 1.77183 42.7 1.74178 42.38 1.96178C41.68 2.45178 42.11 3.25176 42 3.94176C42.78 3.94176 43.45 3.94176 44.15 3.94176Z" fill="#20334B"/>
<path d="M12.66 3.94179C11.88 3.94179 11.21 3.94179 10.43 3.94179C10.54 3.24179 10.12 2.44181 10.84 1.96181C11.17 1.74181 11.83 1.71187 12.18 1.90187C13.01 2.34187 12.53 3.20179 12.66 3.94179Z" fill="#20334B"/>
<path d="M44.15 3.94172C43.45 3.94172 42.78 3.94172 42 3.94172C42.12 3.25172 41.68 2.45174 42.38 1.96174C42.7 1.74174 43.31 1.7718 43.73 1.8918C44.24 2.0418 44.33 2.68172 44.15 3.94172Z" fill="#20334B"/>
</svg>
