<svg width="60" height="32" viewBox="0 0 60 32" fill="none" xmlns="http://www.w3.org/2000/svg">
<path d="M59.11 7.35999C59.05 7.22999 58.97 7.13995 58.88 7.06995L58.6801 6.87C58.5801 6.77999 58.46 6.64996 58.3 6.45996C57.4 5.45996 56.34 4.50989 55.17 3.63989C54 2.74989 52.76 1.98999 51.46 1.35999C50.87 1.07999 50.39 0.87 50.02 0.75C49.63 0.6 49.1699 0.469995 48.6899 0.369995L48.17 0.25C47.92 0.17 47.71 0.109927 47.51 0.0499268L47.34 0.0198975C47.17 0.0198975 46.99 0.0399658 46.83 0.0899658L46.75 0.119995C46.6 0.189995 46.46 0.299932 46.35 0.429932C46.27 0.519932 46.21 0.619888 46.14 0.759888C46.04 1.01989 46.01 1.34998 46.05 1.72998C46.1301 2.34998 46.17 2.56996 46.48 2.70996L46.65 2.75989C47.39 2.88989 48.06 3.0699 48.63 3.2699C49.19 3.4699 49.78 3.72992 50.39 4.03992C50.85 4.27992 51.22 4.49995 51.54 4.69995L51.72 4.81995L51.65 5.02991C51.51 5.42991 51.38 5.77988 51.23 6.12988C51.17 6.28988 51.09 6.48998 50.99 6.72998C50.88 6.99998 50.8 7.23989 50.75 7.38989C50.66 7.64989 50.43 8.21 50.08 9C49.71 9.84 49.31 10.7199 48.88 11.6499L48.16 13.1499C47.96 13.5999 47.76 14.0199 47.54 14.4199L47.28 14.9399L47.24 14.9199L46.98 15.4399C46.98 15.4599 46.5099 16.3799 45.6899 17.6699C43.7399 20.7699 39.64 26.26 34.15 28.25L33.86 28.35L33.85 28.2999L33.3 28.47C32.29 28.78 31.25 28.95 30.22 28.98L29.9399 28.99L29.6801 28.98C28.6401 28.95 27.6 28.77 26.59 28.47L25.91 28.3099C20.31 26.3599 16.15 20.7899 14.17 17.6399C13.36 16.3499 12.91 15.4699 12.89 15.4199L12.63 14.9199L12.33 14.3799C12.13 14.0099 11.93 13.6 11.72 13.11L11.02 11.6699C10.58 10.7299 10.18 9.84 9.82001 9C9.32001 7.86 9.19998 7.52995 9.16998 7.44995C9.10998 7.23995 9.02998 6.99998 8.91998 6.72998C8.81998 6.48998 8.73997 6.27996 8.65997 6.07996C8.52997 5.77996 8.40002 5.42993 8.27002 5.04993L8.21002 4.87988L8.44 4.6499C8.72 4.4699 9.08001 4.26992 9.51001 4.03992C10.13 3.71992 10.72 3.45989 11.28 3.25989C11.84 3.05989 12.52 2.87999 13.29 2.73999L13.47 2.67993C13.73 2.54993 13.77 2.34997 13.85 1.71997C13.9 1.32997 13.86 1.00992 13.73 0.669922C13.69 0.589922 13.63 0.499922 13.56 0.419922C13.45 0.279922 13.31 0.179976 13.14 0.0999756L13.06 0.0699463C12.91 0.0199463 12.73 0 12.53 0L12.36 0.0299072C12.19 0.0799072 11.98 0.149951 11.81 0.199951L11.24 0.339966C10.74 0.439966 10.29 0.569961 9.92999 0.709961C9.51999 0.849961 9.03002 1.04999 8.40002 1.35999C7.14002 1.96999 5.91 2.72999 4.75 3.60999C3.55 4.48999 2.49001 5.45998 1.57001 6.47998C1.45001 6.62998 1.32999 6.7599 1.17999 6.8999L1.04999 7.02991C0.929988 7.11991 0.849988 7.21995 0.799988 7.31995C0.739988 7.42995 0.700002 7.53991 0.690002 7.65991L0.679993 7.73999C0.679993 7.85999 0.71002 7.98 0.77002 8.12C0.81002 8.18999 0.849973 8.25996 0.909973 8.32996C1.02997 8.48996 1.20997 8.63996 1.46997 8.82996C1.98997 9.20996 2.42 9.18999 2.69 9.10999C3.03 9.00998 3.35998 8.72998 3.72998 8.22998C3.80998 8.11998 4.06001 7.83992 4.82001 7.16992C5.07001 6.94992 5.27 6.76988 5.44 6.62988L5.72998 6.38989L6.12 7.25C6.31999 7.7 6.51 8.10998 6.69 8.47998C7.65 10.66 8.42 12.3899 9 13.6699C9.59 14.9599 9.96997 15.7599 10.16 16.0599C10.27 16.2499 10.41 16.4899 10.56 16.7799C10.71 17.0499 10.87 17.33 11.02 17.58C11.19 17.89 11.4 18.2499 11.64 18.6299L12.1 19.3999L12.21 19.5299C15.15 24.0599 21.3499 31.6599 29.8199 31.6599H30.0699C38.4899 31.6599 44.68 24.12 47.62 19.62L47.76 19.4099L47.79 19.4199L48.24 18.6499C48.5 18.2299 48.71 17.87 48.87 17.59C49.04 17.31 49.2 17.0399 49.34 16.7699C49.5 16.4799 49.63 16.25 49.73 16.08C49.85 15.88 50.11 15.4099 50.9 13.6599C51.48 12.3799 52.25 10.6499 53.2 8.50989C53.4 8.09989 53.58 7.6899 53.77 7.2699L54.17 6.37L54.46 6.60999C54.63 6.74999 54.84 6.92991 55.09 7.15991C55.65 7.64991 56.03 8.01997 56.17 8.21997C56.54 8.70997 56.86 8.98997 57.2 9.08997C57.47 9.16997 57.91 9.19995 58.42 8.81995C58.68 8.62995 58.85 8.46996 58.96 8.32996C59.03 8.24996 59.08 8.17997 59.12 8.08997C59.18 7.96997 59.2099 7.83996 59.2 7.70996L59.1899 7.63989C59.1899 7.55989 59.16 7.44999 59.11 7.35999Z" fill="#20334B"/>
</svg>
