<svg width="43" height="32" viewBox="0 0 43 32" fill="none" xmlns="http://www.w3.org/2000/svg">
<path d="M0.309998 28.5V5.94997C0.809998 5.19997 1.27 5.13001 1.98 5.74001C6.33 9.45001 10.68 13.1599 15.03 16.8699C16.41 18.0499 17.75 19.2599 19.15 20.4099C20.03 21.1299 21.08 21.29 22.19 20.98C22.99 20.76 23.58 20.21 24.19 19.69C29.65 15.01 35.1 10.3399 40.56 5.65993C40.89 5.37993 41.24 5.24996 41.64 5.43996C42.03 5.62996 42.13 5.97991 42.13 6.38991C42.13 13.5899 42.14 20.79 42.11 28C42.11 28.54 41.99 29.1299 41.76 29.6099C41.12 30.9699 39.96 31.5999 38.47 31.5999C35.87 31.6099 33.27 31.5999 30.67 31.5999C21.79 31.5999 12.92 31.5999 4.03999 31.5999C3.07999 31.5999 2.22 31.36 1.48 30.71C0.819996 30.13 0.489998 29.36 0.309998 28.5Z" fill="black"/>
<path d="M21.25 0.23999C27 0.23999 32.74 0.23999 38.49 0.23999C39.55 0.23999 40.46 0.589873 41.19 1.36987C41.72 1.93987 41.69 2.42994 41.09 2.93994C37.62 5.88994 34.13 8.8398 30.67 11.7998C27.98 14.0998 25.31 16.43 22.64 18.74C21.59 19.64 20.86 19.64 19.8 18.73C13.68 13.49 7.56 8.25 1.44 3C0.720003 2.39 0.7 1.88998 1.39 1.22998C2.11 0.52998 2.98 0.22998 3.98 0.22998C9.74 0.23998 15.49 0.23999 21.25 0.23999Z" fill="black"/>
</svg>
