<svg width="39" height="40" viewBox="0 0 39 40" fill="none" xmlns="http://www.w3.org/2000/svg">
<path d="M0 21.1198C0 20.3198 0 19.5099 0 18.7099C0.03 18.4599 0.0600002 18.2199 0.0900002 17.9699C0.54 13.8399 2.08 10.1697 4.89 7.09975C9.62 1.94975 15.51 -0.130214 22.43 0.889786C26.37 1.46979 29.8 3.19989 32.63 5.99989C37.65 10.9699 39.55 16.9898 38.15 23.8998C36.95 29.7998 33.51 34.1499 28.22 37.0299C27.1 37.6399 25.91 38.1099 24.65 38.4599V24.1998H28.78C28.99 22.5798 29.19 20.9898 29.41 19.3598H24.66C24.65 19.2698 24.63 19.2198 24.63 19.1698C24.63 18.0798 24.61 16.9798 24.64 15.8898C24.67 14.6898 25.31 14.0399 26.52 13.9799C27.39 13.9399 28.25 13.9598 29.12 13.9498C29.25 13.9498 29.39 13.9498 29.52 13.9498V9.62978C27.97 9.49978 26.44 9.33991 24.92 9.51991C24.17 9.60991 23.4 9.80979 22.73 10.1398C20.72 11.1098 19.84 12.8599 19.69 14.9899C19.6 16.2899 19.65 17.5998 19.64 18.9098C19.64 19.0598 19.64 19.1998 19.64 19.3898H15.52V24.1998H19.64V24.6498C19.64 29.3698 19.64 34.0997 19.64 38.8197C19.64 38.9597 19.62 39.0899 19.6 39.2299H18.09C18.01 39.2099 17.92 39.1798 17.84 39.1698C15.51 38.9998 13.28 38.4498 11.18 37.4298C5.22 34.5198 1.58 29.8097 0.299999 23.2997C0.159999 22.5597 0.1 21.8398 0 21.1198Z" fill="black"/>
</svg>
