<svg width="513" height="512" viewBox="0 0 513 512" fill="none" xmlns="http://www.w3.org/2000/svg">
<path d="M506.32 18.52H512V0.339966H494.2V5.92996C494.2 5.95996 494.18 6.00998 494.18 6.03998C494.11 12.14 489.15 17.11 483.02 17.11C481.12 17.11 479.36 16.64 477.8 15.79C474.29 13.94 471.9 10.27 471.87 6.03998C471.87 6.00998 471.84 5.95996 471.84 5.92996V0.339966H453.69V5.92996C453.69 5.95996 453.66 6.00998 453.66 6.03998C453.63 10.28 451.19 13.93 447.67 15.79H437.35C433.82 13.93 431.38 10.28 431.33 6.03998V0.339966H413.18V0.349976H409.68V5.93997C409.68 5.97997 409.67 6.01996 409.67 6.04996C409.63 10.3 407.19 13.94 403.67 15.8H393.36C389.83 13.95 387.39 10.3 387.35 6.04996C387.35 6.01996 387.34 5.97997 387.34 5.93997V0.349976H369.18V5.93997C369.18 5.97997 369.17 6.01996 369.17 6.04996C369.13 10.3 366.69 13.94 363.16 15.8H352.85C349.32 13.95 346.88 10.3 346.84 6.04996C346.84 6.01996 346.83 5.97997 346.83 5.93997V0.349976H341.59H328.67H323.43V5.93997C323.43 5.97997 323.42 6.01996 323.42 6.04996C323.37 10.3 320.94 13.94 317.41 15.8H307.1C303.57 13.95 301.13 10.3 301.09 6.04996C301.09 6.01996 301.08 5.97997 301.08 5.93997V0.349976H282.92V5.93997C282.92 5.97997 282.91 6.01996 282.91 6.04996C282.86 10.3 280.43 13.94 276.9 15.8H266.52C263.82 14.35 261.79 11.83 260.98 8.79996V6.04996V0.349976H260.56H242.83H242.4V5.93997V6.04996V8.82996C241.59 11.85 239.56 14.36 236.87 15.8H226.49C222.96 13.95 220.52 10.3 220.48 6.04996C220.48 6.01996 220.47 5.97997 220.47 5.93997V0.349976H202.31V5.93997C202.31 5.97997 202.3 6.01996 202.3 6.04996C202.26 10.3 199.82 13.94 196.29 15.8H185.98C182.45 13.95 180.01 10.3 179.97 6.04996C179.97 6.01996 179.96 5.97997 179.96 5.93997V0.349976H179.66H161.8H161.5V5.93997C161.5 5.97997 161.49 6.01996 161.49 6.04996C161.45 10.3 159.01 13.94 155.48 15.8H145.16C141.63 13.95 139.19 10.3 139.16 6.04996C139.16 6.01996 139.15 5.97997 139.15 5.93997V0.349976H121V5.93997C121 5.97997 120.99 6.01996 120.99 6.04996C120.94 10.3 118.51 13.94 114.98 15.8H104.6C101.88 14.34 99.83 11.79 99.04 8.71997V6.04996H99.02V0.349976H80.87V0.359955H80.49V5.94998V6.05997H80.48V8.72998C79.68 11.79 77.63 14.34 74.92 15.81H64.54C61.01 13.95 58.58 10.3 58.55 6.05997C58.55 6.02997 58.52 5.97998 58.52 5.94998V0.359955H40.37V5.94998C40.37 5.97998 40.34 6.02997 40.34 6.05997C40.32 10.29 37.92 13.96 34.41 15.81H29.18V17.13C23.05 17.13 18.09 12.16 18.03 6.05997C18.03 6.02997 18.01 5.97998 18.01 5.94998V0.359955H0.200012V18.54H5.88C12.02 18.6 16.97 23.59 16.97 29.72C16.97 31.46 16.58 33.12 15.85 34.57C14.06 38.26 10.28 40.84 5.89001 40.87H0.210022V59.04H5.89001C12.03 59.09 16.98 64.09 16.98 70.22C16.98 76.34 12.06 81.29 5.94 81.37H5.90002H5.79999H0.219971V99.52V99.5399H5.94C12.04 99.6199 16.97 104.58 16.97 110.7C16.97 116.84 12.02 121.81 5.89001 121.87C5.86001 121.87 5.82998 121.88 5.78998 121.88H0.210022V140.04H5.78998C5.82998 140.04 5.87001 140.04 5.89001 140.04C12.01 140.1 16.97 145.08 16.97 151.21C16.97 157.35 12.02 162.32 5.89001 162.37C5.86001 162.37 5.82998 162.38 5.78998 162.38H0.210022V163.8V165.26V170.9V180.54V181.96H5.78998C5.82998 181.96 5.87001 181.97 5.89001 181.97C12.01 182.03 16.97 187 16.97 193.13C16.97 199.28 12.02 204.24 5.89001 204.3C5.86001 204.3 5.82998 204.31 5.78998 204.31H0.210022V222.46H5.78998C5.82998 222.46 5.87001 222.48 5.89001 222.48C12.01 222.54 16.97 227.51 16.97 233.64C16.97 239.78 12.02 244.74 5.89001 244.8C5.86001 244.8 5.82998 244.81 5.78998 244.81H0.210022V250.05V262.97V268.21H5.78998C5.82998 268.21 5.87001 268.22 5.89001 268.22C12.01 268.28 16.97 273.25 16.97 279.38C16.97 285.53 12.02 290.49 5.89001 290.55C5.86001 290.55 5.82998 290.56 5.78998 290.56H0.210022V308.72H5.78998C5.82998 308.72 5.87001 308.73 5.89001 308.73C12.01 308.79 16.97 313.76 16.97 319.9C16.97 326.04 12.02 331.01 5.89001 331.06C5.86001 331.06 5.82998 331.07 5.78998 331.07H0.210022V331.59V335.56V341.45V349.23V349.74H5.78998C5.82998 349.74 5.87001 349.75 5.89001 349.75C12.01 349.81 16.97 354.78 16.97 360.91C16.97 367.06 12.02 372.02 5.89001 372.08C5.86001 372.08 5.82998 372.09 5.78998 372.09H0.210022V390.25H5.78998C5.82998 390.25 5.87001 390.27 5.89001 390.27C12.01 390.33 16.97 395.3 16.97 401.43C16.97 407.57 12.02 412.53 5.89001 412.59C5.86001 412.59 5.82998 412.6 5.78998 412.6H0.210022V412.82V430.76V430.99H5.89001C12.03 431.04 16.98 436.01 16.98 442.14C16.98 448.27 12.04 453.27 5.89001 453.32H0.210022V471.49H5.89001C10.28 471.52 14.06 474.09 15.85 477.78C16.58 479.24 16.97 480.9 16.97 482.64C16.97 488.77 12.03 493.77 5.88 493.82H0.200012V512H18.01V506.41C18.01 506.38 18.03 506.33 18.03 506.3C18.09 500.19 23.05 495.23 29.18 495.23C31.09 495.23 32.85 495.69 34.41 496.55C37.91 498.39 40.32 502.07 40.34 506.3C40.34 506.33 40.37 506.38 40.37 506.41V512H58.52V506.41C58.52 506.38 58.55 506.33 58.55 506.3C58.6 500.19 63.56 495.23 69.7 495.23C75.83 495.23 80.8 500.19 80.88 506.3V512H99.03H102.54V506.41C102.54 506.37 102.55 506.34 102.55 506.3C102.61 500.18 107.57 495.23 113.71 495.23C119.84 495.23 124.81 500.18 124.88 506.3C124.88 506.33 124.89 506.37 124.89 506.41V512H143.05V506.41C143.05 506.37 143.06 506.34 143.06 506.3C143.12 500.18 148.08 495.23 154.23 495.23C160.35 495.23 165.33 500.18 165.39 506.3C165.39 506.33 165.4 506.37 165.4 506.41V512H170.63H183.56H188.8V506.41C188.8 506.37 188.81 506.34 188.81 506.3C188.87 500.18 193.84 495.23 199.97 495.23C206.11 495.23 211.08 500.18 211.14 506.3C211.14 506.33 211.15 506.37 211.15 506.41V512H229.31V506.41C229.31 506.37 229.32 506.34 229.32 506.3C229.38 500.18 234.34 495.23 240.49 495.23C245.66 495.23 249.97 498.77 251.24 503.54V506.3V512H251.66H269.4H269.82V506.41V506.3H269.83V503.53C271.1 498.76 275.4 495.23 280.58 495.23C286.71 495.23 291.68 500.18 291.75 506.3C291.75 506.33 291.75 506.37 291.75 506.41V512H309.92V506.41C309.92 506.37 309.93 506.34 309.93 506.3C309.98 500.18 314.95 495.23 321.09 495.23C327.22 495.23 332.2 500.18 332.25 506.3C332.25 506.33 332.27 506.37 332.27 506.41V512H332.57H350.42H350.73V506.41C350.73 506.37 350.74 506.34 350.74 506.3C350.8 500.18 355.77 495.23 361.91 495.23C368.03 495.23 373.01 500.18 373.07 506.3C373.07 506.33 373.08 506.37 373.08 506.41V512H391.23V506.41C391.23 506.37 391.25 506.34 391.25 506.3C391.3 500.18 396.27 495.23 402.41 495.23C407.61 495.23 411.94 498.8 413.19 503.6V506.3H413.22V512H431.37H431.75V506.41V506.3H431.76V503.63C433.01 498.82 437.34 495.23 442.54 495.23C448.68 495.23 453.64 500.19 453.69 506.3C453.69 506.33 453.72 506.38 453.72 506.41V512H471.87V506.41C471.87 506.38 471.9 506.33 471.9 506.3C471.93 502.07 474.31 498.4 477.83 496.55C479.39 495.69 481.16 495.23 483.05 495.23C489.18 495.23 494.14 500.19 494.21 506.3C494.21 506.33 494.23 506.38 494.23 506.41V512H512.03V493.82H506.35C500.21 493.76 495.26 488.77 495.26 482.64C495.26 480.9 495.65 479.24 496.38 477.78C498.17 474.09 501.94 471.52 506.34 471.49H512.02V453.32H506.34C500.2 453.27 495.25 448.27 495.25 442.14C495.25 436 500.19 431.04 506.34 430.99H512.02V430.76V412.82V412.6H506.44C506.4 412.6 506.36 412.59 506.34 412.59C500.22 412.53 495.27 407.57 495.27 401.43C495.27 395.29 500.22 390.32 506.34 390.27C506.37 390.27 506.41 390.25 506.44 390.25H512.02V372.09H506.44C506.4 372.09 506.36 372.08 506.34 372.08C500.22 372.02 495.27 367.06 495.27 360.91C495.27 354.78 500.22 349.81 506.34 349.75C506.37 349.75 506.41 349.74 506.44 349.74H512.02V349.23V341.45V335.56V331.59V331.07H506.44C506.4 331.07 506.36 331.06 506.34 331.06C500.22 331 495.27 326.04 495.27 319.9C495.27 313.76 500.22 308.79 506.34 308.73C506.37 308.73 506.41 308.72 506.44 308.72H512.02V290.56H506.44C506.4 290.56 506.36 290.55 506.34 290.55C500.22 290.49 495.27 285.53 495.27 279.38C495.27 273.25 500.22 268.28 506.34 268.22C506.37 268.22 506.41 268.21 506.44 268.21H512.02V262.97V250.05V244.81H506.44C506.4 244.81 506.36 244.8 506.34 244.8C500.22 244.74 495.27 239.77 495.27 233.64C495.27 227.5 500.22 222.53 506.34 222.48C506.37 222.48 506.41 222.46 506.44 222.46H512.02V204.3H506.44C506.4 204.3 506.36 204.29 506.34 204.29C500.22 204.23 495.27 199.27 495.27 193.12C495.27 186.99 500.22 182.02 506.34 181.96C506.37 181.96 506.41 181.95 506.44 181.95H512.02V180.53V170.89V165.25V163.79V162.37H506.44C506.4 162.37 506.36 162.36 506.34 162.36C500.22 162.3 495.27 157.33 495.27 151.2C495.27 145.07 500.22 140.09 506.34 140.03C506.37 140.03 506.41 140.03 506.44 140.03H512.02V121.87H506.44C506.4 121.87 506.36 121.86 506.34 121.86C500.22 121.8 495.27 116.83 495.27 110.69C495.27 104.58 500.2 99.62 506.3 99.53H512.02V99.51V81.36H506.44H506.34H506.3C500.18 81.28 495.26 76.33 495.26 70.21C495.26 64.08 500.2 59.08 506.35 59.03H512.03V40.86H506.35C501.95 40.83 498.18 38.26 496.39 34.56C495.66 33.11 495.27 31.45 495.27 29.71C495.23 23.57 500.18 18.58 506.32 18.52Z" fill="#62B1C3"/>
</svg>
