<svg width="42" height="42" viewBox="0 0 42 42" fill="none" xmlns="http://www.w3.org/2000/svg">
<path d="M0.680023 22.2101C0.680023 21.3501 0.680023 20.49 0.680023 19.63C0.810023 18.73 0.910025 17.82 1.08002 16.93C2.77002 8.08004 10.31 1.23002 19.26 0.410023C23.66 0.010023 27.84 0.789984 31.61 3.11998C38.99 7.66998 42.4 14.3401 41.77 22.9801C41.47 27.0701 39.88 30.72 37.28 33.89C34.05 37.83 29.91 40.2801 24.88 41.2001C24.12 41.3401 23.35 41.4101 22.58 41.5201H20C19.5 41.4601 18.99 41.3999 18.49 41.3299C14.69 40.7899 11.27 39.34 8.31002 36.9C4.37002 33.66 1.92003 29.5301 1.01003 24.5001C0.860025 23.7501 0.790023 22.9801 0.680023 22.2101ZM9.39002 20.9401C9.46002 22.9001 9.47003 24.8699 9.63003 26.8299C9.88003 29.8299 11.97 32.0801 14.94 32.5001C16.43 32.7101 17.96 32.7401 19.47 32.7401C22.03 32.7401 24.6 32.7499 27.15 32.5699C29.52 32.3999 31.32 31.1901 32.36 29.0001C32.81 28.0401 33.02 27.0101 33.03 25.9601C33.07 23.1801 33.1 20.41 33.1 17.63C33.1 16.76 33.04 15.8901 32.95 15.0201C32.64 12.0101 30.61 9.78997 27.63 9.35997C26.15 9.14997 24.64 9.11998 23.14 9.11998C20.57 9.11998 17.99 9.11014 15.42 9.28014C12.22 9.50014 9.90003 11.8599 9.63003 15.0599C9.47003 16.9999 9.47002 18.9601 9.39002 20.9401Z" fill="black"/>
<path d="M21.27 11.1899C23.07 11.2399 24.86 11.2499 26.66 11.3499C29.14 11.4999 30.78 13.06 30.84 15.53C30.94 19.11 30.94 22.69 30.84 26.26C30.77 28.79 29.15 30.41 26.62 30.48C23.06 30.58 19.49 30.57 15.93 30.48C13.42 30.41 11.79 28.7898 11.73 26.2898C11.63 22.7098 11.63 19.1298 11.73 15.5598C11.8 13.0598 13.43 11.5199 15.93 11.3499C16.83 11.2899 17.72 11.26 18.62 11.25C19.5 11.23 20.39 11.25 21.27 11.25C21.27 11.22 21.27 11.2099 21.27 11.1899ZM27.36 20.9199C27.36 17.5699 24.66 14.8699 21.31 14.8499C17.95 14.8399 15.22 17.5599 15.22 20.9199C15.22 24.2699 17.92 26.97 21.27 26.99C24.63 27.01 27.36 24.2899 27.36 20.9199ZM29.02 14.6499C29.04 13.8699 28.43 13.22 27.66 13.2C26.86 13.17 26.21 13.7798 26.19 14.5698C26.17 15.3598 26.77 16 27.54 16.02C28.35 16.05 29 15.4399 29.02 14.6499Z" fill="black"/>
<path d="M25.23 20.92C25.23 23.09 23.47 24.8599 21.3 24.8599C19.12 24.8699 17.34 23.0899 17.34 20.8999C17.35 18.7299 19.12 16.97 21.29 16.98C23.46 16.99 25.23 18.75 25.23 20.92Z" fill="black"/>
</svg>
