<svg width="167" height="40" viewBox="0 0 167 40" fill="none" xmlns="http://www.w3.org/2000/svg">
<path d="M19.47 15.9099C19.66 15.9499 19.9 16.0001 20.2 16.0701C20.49 16.1101 20.77 16.15 21.02 16.2C21.17 16.26 21.28 16.3399 21.37 16.4199C21.45 16.5299 21.5099 16.63 21.5299 16.74C21.5499 16.8 21.5599 16.88 21.5599 16.96C21.5399 17.21 21.43 17.49 21.24 17.78C21.01 18.14 20.88 18.3201 20.86 18.3201C19.87 18.0501 18.9799 17.87 18.1799 17.78C17.3999 17.7 16.5599 17.6599 15.6499 17.6899C14.9599 17.7099 14.3799 17.7501 13.9099 17.8201C13.4499 17.8601 13.18 17.91 13.12 17.98C13.08 18.02 13.03 18.3 12.96 18.8C12.9 19.33 12.85 19.81 12.83 20.25C12.81 20.48 12.79 20.7701 12.77 21.1001C12.75 21.4401 12.7199 21.72 12.6799 21.95C12.6399 22.29 12.5999 23.0299 12.5499 24.1899C12.5099 25.3499 12.48 26.5801 12.46 27.8801C12.46 28.2501 12.46 28.6 12.46 28.96L18.6499 28.8899C19.8199 28.8899 20.86 28.8199 21.76 28.6799L21.8999 28.6499C24.6499 28.0599 27.02 26.8999 28.95 25.1899L29.02 25.1201C31.29 22.9401 32.74 20.45 33.36 17.7C28.12 16.48 23.45 15.9501 19.37 15.8801C19.4 15.9001 19.43 15.8999 19.47 15.9099Z" fill="#F2BF46"/>
<path d="M10.85 38.28C10.81 37.71 10.7599 37.0899 10.6899 36.4199C10.6499 35.9999 10.62 35.6 10.6 35.2C10.6 35.18 10.6 35.1501 10.59 35.1201C10.57 34.7501 10.5499 34.4399 10.5299 34.1899C10.5499 31.9499 10.59 29.5299 10.63 27.1799C10.66 26.1199 10.7 23.27 10.75 21.98C10.75 21.43 10.7599 20.8701 10.7799 20.3101C10.7999 19.7401 10.8099 19.3401 10.8099 19.1101C10.8099 18.9001 10.8099 18.5899 10.8099 18.1899C10.7899 18.1899 10.77 18.1899 10.76 18.1899C10.7 18.1899 10.6399 18.2 10.5599 18.22C10.1399 18.26 9.41991 18.43 8.40991 18.73C7.41991 19 6.76995 19.2199 6.44995 19.3899C5.91995 19.6599 5.52 19.78 5.25 19.74C4.98 19.7 4.73994 19.4999 4.55994 19.1399C4.38994 18.8199 4.29991 18.59 4.27991 18.45C4.25991 18.39 4.25 18.33 4.25 18.29C4.25 18.23 4.25991 18.1701 4.27991 18.1301C4.31991 18.0701 4.35991 18.02 4.40991 18C4.44991 17.96 4.48992 17.9399 4.53992 17.9399C4.55992 17.9399 4.68992 17.9001 4.91992 17.8101C5.05992 17.7701 5.21 17.7099 5.38 17.6399C3.05 18.3199 1.26001 19.09 0.0100098 19.71V29.98V35.2V38.53H10.52H10.58H10.88C10.86 38.44 10.85 38.37 10.85 38.28Z" fill="#D86758"/>
<path d="M32.73 9.13013L32.6899 9.02002C30.0699 3.12002 25.1399 0 18.4299 0H0.039917V9.84009H0.0299072V18.51H0V19.71C1.25 19.09 3.04 18.3199 5.37 17.6399C5.46 17.5999 5.54001 17.57 5.64001 17.53C6.79001 17.06 8.01994 16.6701 9.30994 16.3601C9.73994 16.2601 10.18 16.1601 10.63 16.0801C10.66 16.0701 10.69 16.0701 10.72 16.0601C10.75 16.0501 10.7799 16.05 10.8099 16.04C11.8799 15.83 12.94 15.6901 13.99 15.6101C14.2 15.5901 14.41 15.5801 14.62 15.5701C15.04 15.5501 15.46 15.54 15.87 15.54C15.89 15.54 15.9099 15.54 15.9299 15.54C16.2299 15.54 16.51 15.54 16.76 15.55C17.01 15.56 17.25 15.5701 17.46 15.5901C17.6 15.6001 17.73 15.6201 17.85 15.6301C18.19 15.6601 18.56 15.72 18.96 15.8C19.09 15.83 19.23 15.8599 19.36 15.8899C23.44 15.9599 28.11 16.48 33.35 17.71C33.58 16.69 33.7 15.64 33.7 14.55C33.7099 12.63 33.38 10.8101 32.73 9.13013Z" fill="#62B1C3"/>
<path d="M13.98 15.6001C12.93 15.6801 11.8699 15.82 10.7999 16.03C10.7699 16.04 10.74 16.04 10.71 16.05C10.74 16.04 10.7699 16.04 10.7999 16.03C11.8699 15.83 12.93 15.6801 13.98 15.6001Z" fill="#62B1C3"/>
<path d="M16.76 15.55C17.02 15.56 17.25 15.5701 17.46 15.5901C17.25 15.5701 17.02 15.55 16.76 15.55Z" fill="#62B1C3"/>
<path d="M15.9299 15.53C16.2299 15.53 16.51 15.53 16.76 15.54C16.51 15.54 16.2299 15.53 15.9299 15.53Z" fill="#62B1C3"/>
<path d="M51.58 3.66992V6.31006H47.24V19.96H43.97V6.31006H39.63V3.66992H51.58Z" fill="#20334B"/>
<path d="M63.85 7.47998C64.61 7.90998 65.21 8.54012 65.63 9.37012C66.06 10.2001 66.27 11.2001 66.27 12.3701V19.95H63V12.8101C63 11.7801 62.74 10.9899 62.23 10.4399C61.72 9.88994 61.02 9.61011 60.13 9.61011C59.23 9.61011 58.52 9.88994 58 10.4399C57.48 10.9899 57.22 11.7801 57.22 12.8101V19.95H53.95V2.68994H57.22V8.63989C57.64 8.07989 58.1999 7.64007 58.8999 7.32007C59.5999 7.00007 60.38 6.84009 61.23 6.84009C62.22 6.84009 63.09 7.05998 63.85 7.47998Z" fill="#20334B"/>
<path d="M71.76 19.3301C70.76 18.7801 69.9799 18 69.4199 16.99C68.8499 15.98 68.5699 14.81 68.5699 13.49C68.5699 12.17 68.8599 11 69.4399 9.98999C70.0199 8.97999 70.82 8.1999 71.83 7.6499C72.84 7.0999 73.97 6.82007 75.21 6.82007C76.45 6.82007 77.58 7.0999 78.59 7.6499C79.6 8.1999 80.4 8.97999 80.98 9.98999C81.56 11 81.85 12.17 81.85 13.49C81.85 14.81 81.55 15.98 80.95 16.99C80.35 18 79.54 18.7801 78.52 19.3301C77.5 19.8801 76.36 20.1599 75.1 20.1599C73.87 20.1599 72.75 19.8901 71.76 19.3301ZM76.7899 16.8899C77.3099 16.5999 77.7299 16.1701 78.0399 15.6001C78.3499 15.0201 78.51 14.33 78.51 13.5C78.51 12.27 78.1899 11.3299 77.5399 10.6699C76.8899 10.0099 76.1099 9.67993 75.1699 9.67993C74.2299 9.67993 73.46 10.0099 72.83 10.6699C72.2 11.3299 71.89 12.28 71.89 13.5C71.89 14.73 72.1999 15.6701 72.8099 16.3301C73.4199 16.9901 74.2 17.3201 75.13 17.3201C75.71 17.3201 76.2699 17.1699 76.7899 16.8899Z" fill="#20334B"/>
<path d="M96.47 7.03003V19.95H93.1799V18.3201C92.7599 18.8801 92.2099 19.3199 91.5299 19.6399C90.8499 19.9599 90.12 20.1201 89.33 20.1201C88.32 20.1201 87.4199 19.91 86.6499 19.48C85.8699 19.05 85.2599 18.4201 84.8199 17.5901C84.3799 16.7601 84.1499 15.7701 84.1499 14.6201V7.04004H87.4199V14.1599C87.4199 15.1899 87.6799 15.98 88.1899 16.53C88.6999 17.08 89.3999 17.3601 90.2899 17.3601C91.1899 17.3601 91.8999 17.08 92.4099 16.53C92.9199 15.98 93.1799 15.1899 93.1799 14.1599V7.04004H96.47V7.03003Z" fill="#20334B"/>
<path d="M107.29 7.38989C108.02 7.76989 108.6 8.27012 109.02 8.87012V7.03003H112.31V20.05C112.31 21.25 112.07 22.32 111.59 23.26C111.11 24.2 110.38 24.95 109.42 25.5C108.46 26.05 107.29 26.3301 105.92 26.3301C104.08 26.3301 102.58 25.9 101.41 25.05C100.24 24.19 99.5699 23.03 99.4199 21.55H102.66C102.83 22.14 103.2 22.61 103.77 22.96C104.34 23.31 105.03 23.48 105.83 23.48C106.78 23.48 107.55 23.2001 108.14 22.6301C108.73 22.0601 109.03 21.2 109.03 20.05V18.04C108.61 18.65 108.03 19.1501 107.29 19.5601C106.55 19.9601 105.71 20.1699 104.76 20.1699C103.67 20.1699 102.68 19.8901 101.77 19.3301C100.87 18.7701 100.16 17.98 99.64 16.96C99.12 15.94 98.86 14.77 98.86 13.45C98.86 12.14 99.12 10.98 99.64 9.96997C100.16 8.95997 100.87 8.17989 101.76 7.63989C102.65 7.09989 103.65 6.82007 104.76 6.82007C105.71 6.82007 106.56 7.00989 107.29 7.38989ZM108.55 11.45C108.24 10.88 107.82 10.4499 107.29 10.1399C106.76 9.83989 106.19 9.67993 105.59 9.67993C104.98 9.67993 104.42 9.83012 103.91 10.1201C103.4 10.4201 102.98 10.8499 102.66 11.4099C102.34 11.9799 102.18 12.6499 102.18 13.4299C102.18 14.2099 102.34 14.89 102.66 15.47C102.98 16.05 103.4 16.5001 103.92 16.8101C104.44 17.1201 105 17.28 105.59 17.28C106.2 17.28 106.76 17.1301 107.29 16.8301C107.82 16.5301 108.24 16.09 108.55 15.52C108.86 14.95 109.02 14.27 109.02 13.48C109.02 12.7 108.86 12.02 108.55 11.45Z" fill="#20334B"/>
<path d="M125.39 7.47998C126.15 7.90998 126.75 8.54012 127.17 9.37012C127.6 10.2001 127.81 11.2001 127.81 12.3701V19.95H124.54V12.8101C124.54 11.7801 124.28 10.9899 123.77 10.4399C123.26 9.88994 122.56 9.61011 121.67 9.61011C120.77 9.61011 120.06 9.88994 119.54 10.4399C119.02 10.9899 118.76 11.7801 118.76 12.8101V19.95H115.49V2.68994H118.76V8.63989C119.18 8.07989 119.74 7.64007 120.44 7.32007C121.14 7.00007 121.92 6.84009 122.77 6.84009C123.76 6.84009 124.63 7.05998 125.39 7.47998Z" fill="#20334B"/>
<path d="M134.73 9.70996V15.96C134.73 16.4 134.83 16.7099 135.04 16.8999C135.25 17.0899 135.6 17.1899 136.1 17.1899H137.62V19.9399H135.57C132.82 19.9399 131.44 18.5999 131.44 15.9299V9.69995H129.9V7.02002H131.44V3.82007H134.73V7.02002H137.62V9.69995H134.73V9.70996Z" fill="#20334B"/>
<path d="M145.9 9.71001H143.64V19.95H140.33V9.71001H138.86V7.03008H140.33V6.38018C140.33 4.79017 140.78 3.63018 141.68 2.88018C142.58 2.13018 143.94 1.78013 145.76 1.83013V4.58013C144.97 4.56013 144.41 4.70003 144.1 4.98003C143.79 5.26003 143.63 5.77005 143.63 6.50005V7.04009H145.89V9.71001H145.9Z" fill="#20334B"/>
<path d="M160.22 7.03003V19.95H156.93V18.3201C156.51 18.8801 155.96 19.3199 155.28 19.6399C154.6 19.9599 153.87 20.1201 153.08 20.1201C152.07 20.1201 151.17 19.91 150.4 19.48C149.62 19.05 149.01 18.4201 148.57 17.5901C148.13 16.7601 147.9 15.7701 147.9 14.6201V7.04004H151.17V14.1599C151.17 15.1899 151.43 15.98 151.94 16.53C152.45 17.08 153.15 17.3601 154.04 17.3601C154.94 17.3601 155.65 17.08 156.16 16.53C156.67 15.98 156.93 15.1899 156.93 14.1599V7.04004H160.22V7.03003Z" fill="#20334B"/>
<path d="M166.71 2.68994V19.95H163.44V2.68994H166.71Z" fill="#20334B"/>
<path d="M53.95 30.72C53.54 31.48 52.89 32.1001 52.01 32.5601C51.13 33.0301 50.0199 33.26 48.6899 33.26H45.96V39.51H42.6899V23.23H48.6899C49.9499 23.23 51.0199 23.4501 51.9099 23.8801C52.7999 24.3201 53.4599 24.9099 53.8999 25.6799C54.3399 26.4399 54.5699 27.31 54.5699 28.27C54.5699 29.14 54.36 29.95 53.95 30.72ZM50.5499 30C50.9899 29.59 51.2 29.01 51.2 28.26C51.2 26.67 50.3099 25.8801 48.5399 25.8801H45.95V30.6201H48.5399C49.4499 30.6201 50.1199 30.42 50.5499 30Z" fill="#20334B"/>
<path d="M59.26 38.8899C58.26 38.3399 57.4799 37.56 56.9199 36.55C56.3599 35.54 56.0699 34.37 56.0699 33.05C56.0699 31.73 56.3599 30.56 56.9399 29.55C57.5199 28.54 58.32 27.76 59.33 27.21C60.34 26.66 61.47 26.3801 62.71 26.3801C63.95 26.3801 65.08 26.66 66.09 27.21C67.1 27.76 67.9 28.54 68.48 29.55C69.06 30.56 69.35 31.73 69.35 33.05C69.35 34.37 69.05 35.54 68.45 36.55C67.85 37.56 67.04 38.3399 66.02 38.8899C65 39.4399 63.86 39.72 62.6 39.72C61.37 39.72 60.25 39.4499 59.26 38.8899ZM64.2799 36.4399C64.7999 36.1499 65.2199 35.7199 65.5299 35.1499C65.8399 34.5699 66 33.87 66 33.05C66 31.82 65.6799 30.88 65.0299 30.22C64.3799 29.56 63.5999 29.23 62.6599 29.23C61.7199 29.23 60.9499 29.56 60.3199 30.22C59.6899 30.88 59.38 31.83 59.38 33.05C59.38 34.28 59.6899 35.2201 60.2999 35.8801C60.9099 36.5401 61.69 36.8701 62.62 36.8701C63.21 36.8801 63.7599 36.7299 64.2799 36.4399Z" fill="#20334B"/>
<path d="M73.86 39.1499C73.02 38.7699 72.36 38.2501 71.87 37.6001C71.38 36.9501 71.1099 36.2199 71.0699 35.4299H74.36C74.42 35.9299 74.67 36.3399 75.09 36.6699C75.52 36.9999 76.0499 37.1599 76.6899 37.1599C77.3099 37.1599 77.7999 37.04 78.1499 36.79C78.4999 36.54 78.6699 36.2201 78.6699 35.8301C78.6699 35.4101 78.4599 35.0999 78.0299 34.8899C77.5999 34.6799 76.92 34.45 75.99 34.2C75.03 33.97 74.24 33.73 73.62 33.48C73.01 33.23 72.4799 32.8501 72.0299 32.3401C71.5899 31.8301 71.36 31.13 71.36 30.26C71.36 29.54 71.57 28.89 71.98 28.3C72.39 27.71 72.98 27.2399 73.75 26.8999C74.52 26.5599 75.43 26.3899 76.47 26.3899C78.01 26.3899 79.2399 26.78 80.1599 27.55C81.0799 28.32 81.5799 29.3599 81.6799 30.6599H78.5499C78.4999 30.1499 78.2899 29.7399 77.9099 29.4399C77.5299 29.1399 77.02 28.99 76.38 28.99C75.79 28.99 75.33 29.1001 75.02 29.3201C74.7 29.5401 74.5399 29.84 74.5399 30.23C74.5399 30.67 74.7599 31 75.1899 31.22C75.6299 31.45 76.3 31.6699 77.22 31.9099C78.15 32.1399 78.9199 32.3801 79.5299 32.6301C80.1399 32.8801 80.66 33.26 81.11 33.79C81.55 34.31 81.7799 35.0001 81.7999 35.8501C81.7999 36.6001 81.5899 37.2701 81.1799 37.8601C80.7699 38.4501 80.1799 38.91 79.4099 39.25C78.6399 39.58 77.74 39.75 76.72 39.75C75.65 39.72 74.7 39.5299 73.86 39.1499Z" fill="#20334B"/>
<path d="M88.2799 29.27V35.52C88.2799 35.96 88.38 36.27 88.59 36.46C88.8 36.65 89.1499 36.75 89.6499 36.75H91.1699V39.5H89.12C86.37 39.5 84.99 38.16 84.99 35.49V29.26H83.45V26.5801H84.99V23.3801H88.2799V26.5801H91.1699V29.26H88.2799V29.27Z" fill="#20334B"/>
</svg>
