<svg width="65" height="74" viewBox="0 0 65 74" fill="none" xmlns="http://www.w3.org/2000/svg">
<path d="M37.26 30.6201C37.62 30.7001 38.08 30.8001 38.64 30.9201C39.2 31.0001 39.72 31.0801 40.21 31.1601C40.49 31.2801 40.71 31.4201 40.87 31.5801C41.03 31.7801 41.13 31.9801 41.17 32.1801C41.21 32.3001 41.23 32.4401 41.23 32.6001C41.19 33.0801 40.99 33.6001 40.63 34.1601C40.19 34.8401 39.95 35.1801 39.91 35.1801C38.02 34.6601 36.32 34.3201 34.8 34.1601C33.32 34.0001 31.71 33.9401 29.99 33.9801C28.67 34.0201 27.56 34.1001 26.68 34.2201C25.8 34.3001 25.29 34.4001 25.17 34.5201C25.09 34.6001 24.99 35.1201 24.87 36.0901C24.75 37.0901 24.67 38.0201 24.63 38.8601C24.59 39.3001 24.55 39.8401 24.51 40.4801C24.47 41.1201 24.41 41.6601 24.33 42.1001C24.25 42.7401 24.17 44.1701 24.09 46.3701C24.01 48.5801 23.95 50.9201 23.91 53.4101C23.91 54.1101 23.91 54.7901 23.91 55.4701L35.71 55.3301C37.93 55.3301 39.93 55.2001 41.64 54.9401L41.91 54.8901C47.15 53.7601 51.67 51.5501 55.34 48.2901L55.48 48.1601C59.81 44.0101 62.57 39.2701 63.75 34.0201C53.76 31.6901 44.87 30.6901 37.08 30.5601C37.14 30.5901 37.2 30.6001 37.26 30.6201Z" fill="#F2BF46"/>
<path d="M20.83 73.25C20.75 72.17 20.65 70.98 20.53 69.7C20.45 68.91 20.4 68.14 20.36 67.38C20.36 67.33 20.35 67.28 20.35 67.23C20.31 66.5201 20.28 65.94 20.24 65.45C20.29 61.18 20.35 56.57 20.42 52.09C20.48 50.07 20.56 44.63 20.65 42.18C20.65 41.14 20.67 40.07 20.71 38.99C20.75 37.91 20.77 37.15 20.77 36.7C20.77 36.3 20.77 35.72 20.77 34.96C20.74 34.96 20.7 34.96 20.67 34.97C20.56 34.98 20.44 34.99 20.29 35.02C19.49 35.1 18.12 35.42 16.2 35.98C14.31 36.5 13.07 36.92 12.47 37.24C11.47 37.76 10.7 37.98 10.18 37.9C9.66003 37.82 9.22003 37.44 8.86003 36.76C8.54004 36.16 8.36003 35.72 8.32003 35.44C8.28003 35.32 8.26003 35.22 8.26003 35.14C8.26003 35.02 8.28003 34.92 8.32003 34.84C8.40003 34.72 8.48004 34.64 8.56004 34.6C8.64004 34.52 8.72003 34.48 8.80003 34.48C8.84003 34.48 9.08004 34.4 9.52003 34.24C9.78004 34.16 10.08 34.05 10.39 33.92C5.95003 35.22 2.54003 36.67 0.160034 37.86V57.44V67.39V73.73H20.18H20.29H20.86C20.86 73.5601 20.84 73.42 20.83 73.25Z" fill="#D86758"/>
<path d="M62.54 17.7L62.45 17.49C57.46 6.24004 48.06 0.290039 35.28 0.290039H0.230022V19.05H0.210022V35.57H0.150024V37.85C2.53002 36.66 5.94002 35.21 10.38 33.91C10.55 33.84 10.71 33.77 10.89 33.69C13.09 32.79 15.42 32.04 17.88 31.46C18.7 31.26 19.54 31.09 20.39 30.93C20.45 30.92 20.5 30.91 20.56 30.9C20.62 30.89 20.67 30.88 20.73 30.87C22.76 30.47 24.78 30.2 26.79 30.04C27.19 30.01 27.59 29.98 27.99 29.96C28.79 29.92 29.59 29.9 30.38 29.9C30.42 29.9 30.46 29.9 30.5 29.9C31.07 29.9 31.6 29.91 32.09 29.93C32.58 29.95 33.02 29.97 33.42 30.01C33.69 30.03 33.94 30.06 34.17 30.09C34.82 30.15 35.53 30.26 36.29 30.42C36.54 30.47 36.8 30.53 37.06 30.59C44.84 30.72 53.74 31.72 63.73 34.05C64.17 32.11 64.39 30.1 64.39 28.02C64.41 24.37 63.78 20.9 62.54 17.7Z" fill="#62B1C3"/>
<path d="M26.81 30.03C24.81 30.18 22.79 30.46 20.75 30.86C20.69 30.87 20.64 30.88 20.58 30.89C20.64 30.88 20.69 30.87 20.75 30.86C22.78 30.46 24.8 30.18 26.81 30.03Z" fill="#62B1C3"/>
<path d="M32.11 29.92C32.6 29.94 33.04 29.96 33.44 30C33.04 29.96 32.59 29.94 32.11 29.92Z" fill="#62B1C3"/>
<path d="M30.52 29.9C31.09 29.9 31.62 29.91 32.11 29.93C31.62 29.9 31.09 29.9 30.52 29.9Z" fill="#62B1C3"/>
</svg>
