<svg width="42" height="53" viewBox="0 0 42 53" fill="none" xmlns="http://www.w3.org/2000/svg">
<path d="M38.79 23.78C38.75 23.02 38.75 22.24 38.75 21.46C38.74 20.16 38.73 18.81 38.58 17.51C38.51 16.86 38.25 16.3699 37.84 16.0499C37.09 15.4699 35.96 15.54 35.06 15.66L20.41 17.7L22.43 16.45C24.1 15.42 25.73 14.28 27.17 13.27L27.44 13.08C28.93 12.04 30.26 11.09 31.51 10.01C32.62 9.05001 33.15 7.89999 33.07 6.60999C32.98 5.02999 31.99 3.53 30.37 2.5C28.59 1.37 26.46 1.06998 24.83 1.72998C22.03 2.84998 20.57 5.89003 19.42 8.66003C18.87 9.98003 18.39 11.34 17.93 12.66L17.11 15.04L16.59 13.89C16.24 13.12 15.86 12.36 15.48 11.61C15.29 11.24 15.11 10.88 14.93 10.52L14.81 10.28C13.62 7.86003 12.4 5.36 10.82 3.13C9.55 1.34 7.24001 0 4.89001 0C3.94001 0 2.98997 0.219961 2.09997 0.709961C1.32997 1.13996 0.81999 1.76001 0.61999 2.51001C0.35999 3.49001 0.610021 4.70003 1.34002 5.91003C2.36002 7.61003 3.66998 9.30998 5.22998 10.98C7.74998 13.67 10.73 15.9299 14.07 17.6799L15.45 18.4L6.84997 19.6C6.44997 19.66 6.18001 19.9199 6.14001 20.2999C6.13001 20.3899 6.12 20.46 6.13 20.54C6.45 25.62 6.49998 30.7999 6.54998 35.8099V35.9299C6.57998 38.9499 6.61 42.08 6.69 45.15L6.71997 46.13C6.75997 47.72 6.80001 49.33 6.95001 50.9C7.00001 51.44 7.20002 51.85 7.53002 52.13C7.89002 52.43 8.41002 52.5699 9.15002 52.5699C9.56002 52.5699 9.97998 52.53 10.36 52.49C10.63 52.46 10.89 52.4399 11.13 52.4299L40.67 51.15C40.96 51.14 41.21 51.0199 41.38 50.8099C41.56 50.5899 41.63 50.29 41.58 49.98L41.38 48.79C40.04 40.5 39.17 32.09 38.79 23.78ZM19.13 15.13C19.34 14.56 19.51 13.99 19.68 13.45L19.73 13.29C19.88 12.82 20.02 12.3599 20.18 11.9199L20.27 11.6699C21.14 9.22992 22.13 6.45996 23.97 4.57996C24.82 3.70996 25.73 3.26001 26.68 3.26001C28.26 3.26001 30.13 4.34003 30.86 5.66003C31.22 6.32003 31.28 7.08997 31.01 7.71997C30.87 8.04997 30.74 8.16 30.36 8.5C29.34 9.42 28.19 10.23 27.09 11.02L26.98 11.1C25.19 12.37 23.38 13.5699 21.61 14.6699L21.45 14.76C20.9 15.1 20.37 15.42 19.84 15.74L18.64 16.4399L19.13 15.13ZM14.33 15.6899C12.11 14.4699 10.04 12.97 8.15997 11.23C6.74997 9.91998 5.48001 8.51004 4.39001 7.04004L4.14001 6.70996C3.14001 5.39996 2.21002 4.10001 2.40002 3.13C2.47002 2.8 2.67002 2.53997 3.03002 2.33997C4.36002 1.58997 6.36999 1.84 7.92999 2.88C8.65999 3.37 9.12999 3.96997 9.67999 4.83997C11.08 7.03997 12.26 9.39993 13.26 11.4299C13.43 11.7799 13.61 12.13 13.79 12.49C14.22 13.35 14.65 14.1999 15.02 15.0599L15.61 16.41L14.33 15.6899ZM8.82 50.62L8.77001 50.16C8.72001 49.73 8.72002 49.2599 8.71002 48.8099C8.71002 48.5399 8.7 48.28 8.69 48.03C8.65 47.06 8.61002 46.09 8.59002 45.11C8.50002 42 8.47 38.83 8.44 35.76L8.41998 33.28C8.37998 29.41 8.31998 25.62 8.10998 21.76L8.08001 21.2999L16.57 20.12L16.59 20.6699C16.64 21.8099 16.68 22.9399 16.71 24.0599C16.83 28.6499 16.96 33.3899 18.36 37.9399C19.81 42.6399 21.82 46.4 24.33 49.12L25.07 49.91L8.82 50.62ZM27.9 49.79L27.76 49.6799C23.47 46.4899 21.17 40.9 19.99 36.77C18.8 32.6 18.7 28.23 18.59 24C18.56 22.78 18.52 21.5399 18.47 20.3099L18.45 19.85L35.12 17.53C35.23 17.51 35.35 17.49 35.48 17.47C35.82 17.4 36.07 17.36 36.27 17.38L36.65 17.41L36.72 17.79C36.74 17.92 36.74 18.1599 36.74 18.3199C36.74 18.4199 36.74 18.51 36.74 18.59C36.78 20.64 36.86 22.7 36.95 24.72C37.15 28.79 37.47 32.9 37.9 36.95C38.31 40.81 38.84 44.77 39.47 48.72L39.56 49.27L27.9 49.79Z" fill="#20334B"/>
</svg>
