<svg width="55" height="52" viewBox="0 0 55 52" fill="none" xmlns="http://www.w3.org/2000/svg">
<path d="M54.79 39.47C54.43 40.64 53.66 41.48 52.73 42.27C48.2 46.16 42.88 48.34 37.14 49.63C31.41 50.92 25.61 51.27 19.76 50.83C15.86 50.54 12.01 49.9399 8.29999 48.6599C8.10999 48.5899 7.88999 48.58 7.67999 48.58C5.64999 48.57 3.61999 48.58 1.57999 48.58C0.769987 48.58 0.5 48.31 0.5 47.51C0.5 42.76 0.5 38 0.5 33.25C0.5 32.41 0.759985 32.14 1.60999 32.15C5.70999 32.18 9.81 32.18 13.91 32.27C16.52 32.33 19.14 32.52 21.67 33.22C22.45 33.43 23.26 33.67 23.92 34.11C26.06 35.53 28.46 35.89 30.94 35.96C32.14 35.99 33.34 36.01 34.54 35.98C36.06 35.95 37.35 36.38 38.34 37.74C40.15 37.06 41.98 36.38 43.81 35.68C45.31 35.11 46.77 34.42 48.3 33.96C50.24 33.38 51.56 34.5001 51.51 36.5301C51.51 36.5801 51.53 36.63 51.54 36.7C51.63 36.7 51.71 36.71 51.79 36.7C53.3 36.52 54.11 36.99 54.69 38.39C54.71 38.43 54.75 38.47 54.78 38.51C54.79 38.83 54.79 39.15 54.79 39.47ZM9.09 47.1599C9.29 47.2199 9.46 47.28 9.63 47.32C16.6 49.22 23.68 49.89 30.87 49.13C35.54 48.63 40.03 47.47 44.29 45.5C46.99 44.25 49.51 42.7 51.84 40.83C52.26 40.49 52.63 40.08 52.96 39.65C53.21 39.32 53.2 38.93 52.94 38.57C52.68 38.22 52.33 38.25 51.98 38.35C51.54 38.48 51.1 38.6199 50.68 38.7899C49.36 39.3299 48.04 39.88 46.72 40.43C43.01 41.97 39.12 42.92 35.22 43.83C31.16 44.78 27.1 44.21 23.05 43.77C22.58 43.72 22.3 43.27 22.37 42.85C22.44 42.4 22.84 42.1 23.34 42.15C24.01 42.22 24.67 42.31 25.34 42.38C27.96 42.65 30.59 42.84 33.22 42.52C34.19 42.4 35.16 42.13 36.07 41.77C36.51 41.6 37.03 41.12 37.13 40.69C37.54 38.94 36.63 37.62 34.93 37.63C33.09 37.64 31.26 37.56 29.42 37.45C27.22 37.32 25.09 36.8899 23.18 35.6699C22.05 34.9499 20.77 34.6 19.45 34.38C16.28 33.84 13.09 33.83 9.89001 33.81C9.63001 33.81 9.38001 33.81 9.10001 33.81C9.09001 38.29 9.09 42.7099 9.09 47.1599ZM7.38 46.9099C7.38 42.5399 7.38 38.2 7.38 33.82C5.64001 33.82 3.92001 33.82 2.17001 33.82C2.17001 38.19 2.17001 42.5299 2.17001 46.9099C3.92001 46.9099 5.64001 46.9099 7.38 46.9099ZM38.8 41.26C38.87 41.24 38.96 41.23 39.04 41.21C42.3 40.39 45.43 39.2199 48.52 37.9099C49.14 37.6499 49.54 37.2 49.78 36.64C49.89 36.39 49.81 35.97 49.65 35.74C49.53 35.56 49.13 35.48 48.88 35.52C48.42 35.6 47.96 35.77 47.52 35.95C45.59 36.73 43.68 37.5399 41.74 38.2999C40.78 38.6799 39.78 38.97 38.8 39.31C38.8 39.94 38.8 40.57 38.8 41.26Z" fill="#20334B"/>
<path d="M43.85 3.46997C43.14 1.77997 41.8 0.609976 40.28 0.349976C38.22 -2.44081e-05 36.24 0.979966 35.25 1.58997C33.34 2.76997 31.82 4.56992 30.97 6.66992L30.84 6.97998L30.71 6.66992C29.7 4.33992 28.5 2.71996 26.95 1.57996C25.68 0.649956 24 0 22.31 0C20.94 0 19.56 0.429981 18.4 1.47998C15.74 3.88998 15.83 7.72002 16.71 10.27C17.88 13.65 20.3 16.62 22.51 19.08C25.26 22.14 28.34 24.59 31.66 26.37C31.96 26.53 32.31 26.52 32.59 26.35C32.89 26.17 33.07 25.82 33.06 25.48C33.05 25.16 32.87 24.89 32.58 24.73C27.43 21.97 22.87 17.55 19.73 12.26C18.45 10.1 17.23 6.94992 18.7 4.16992C19.25 3.12992 20.1 2.40997 21.16 2.08997C22.37 1.72997 23.8 1.92 25.07 2.62C28.03 4.25 29.23 7.84999 30.19 10.74L30.2 10.78L30.32 11.0699L30.37 11.14C30.58 11.44 30.94 11.58 31.31 11.52C31.65 11.46 31.92 11.2399 32.03 10.9099L32.06 10.83L32.08 10.46V10.4399C32.13 7.75994 33.53 5.10992 35.73 3.53992C36.43 3.03992 38.25 1.89996 39.97 2.20996C41.22 2.43996 41.99 3.66991 42.27 4.65991C42.83 6.61991 41.99 8.81992 41.31 10.2899C40.32 12.4499 38.97 14.45 37.78 16.12C37.46 16.58 37.11 17.03 36.77 17.48C35.98 18.52 35.18 19.56 34.58 20.7C34.33 21.17 34.51 21.74 35 21.99C35.46 22.23 35.99 22.07 36.23 21.62C36.81 20.53 37.6 19.49 38.36 18.49C38.71 18.03 39.1 17.52 39.46 17.01C40.81 15.1 42.33 12.8 43.36 10.28C44.46 7.60003 44.63 5.30997 43.85 3.46997Z" fill="#20334B"/>
</svg>
