<svg width="168" height="51" viewBox="0 0 168 51" fill="none" xmlns="http://www.w3.org/2000/svg">
<path d="M15.81 3.27002V6.75002H10.07V24.8H5.75001V6.76002H0.0100098V3.28002H15.81V3.27002Z" fill="#20334B"/>
<path d="M32.03 8.31998C33.04 8.88998 33.82 9.71998 34.39 10.82C34.96 11.92 35.24 13.24 35.24 14.78V24.8H30.92V15.36C30.92 14 30.58 12.96 29.9 12.23C29.22 11.5 28.3 11.13 27.12 11.13C25.93 11.13 24.99 11.5 24.3 12.23C23.61 12.96 23.27 14 23.27 15.36V24.8H18.95V1.97998H23.27V9.83998C23.83 9.09998 24.57 8.51998 25.49 8.09998C26.42 7.67998 27.44 7.46998 28.57 7.46998C29.88 7.46998 31.03 7.74998 32.03 8.31998Z" fill="#20334B"/>
<path d="M42.49 23.98C41.17 23.25 40.14 22.22 39.39 20.88C38.64 19.54 38.26 18 38.26 16.25C38.26 14.5 38.65 12.96 39.42 11.62C40.19 10.28 41.24 9.25005 42.58 8.52005C43.92 7.79005 45.41 7.42004 47.05 7.42004C48.69 7.42004 50.19 7.79005 51.52 8.52005C52.86 9.25005 53.91 10.28 54.68 11.62C55.45 12.96 55.84 14.5 55.84 16.25C55.84 18 55.44 19.54 54.65 20.88C53.86 22.22 52.79 23.25 51.44 23.98C50.09 24.71 48.59 25.07 46.92 25.07C45.28 25.08 43.8 24.71 42.49 23.98ZM49.13 20.74C49.82 20.36 50.37 19.79 50.78 19.03C51.19 18.27 51.4 17.34 51.4 16.25C51.4 14.63 50.97 13.38 50.12 12.5C49.27 11.63 48.22 11.19 46.99 11.19C45.76 11.19 44.72 11.63 43.89 12.5C43.06 13.37 42.64 14.62 42.64 16.25C42.64 17.87 43.05 19.12 43.86 20C44.67 20.87 45.69 21.31 46.93 21.31C47.71 21.31 48.44 21.12 49.13 20.74Z" fill="#20334B"/>
<path d="M75.15 7.70996V24.8H70.8V22.64C70.24 23.38 69.52 23.96 68.63 24.38C67.74 24.8 66.76 25.01 65.72 25.01C64.38 25.01 63.2 24.73 62.17 24.16C61.14 23.59 60.34 22.76 59.75 21.66C59.16 20.56 58.87 19.25 58.87 17.73V7.70996H63.19V17.12C63.19 18.48 63.53 19.52 64.21 20.25C64.89 20.98 65.81 21.34 66.99 21.34C68.18 21.34 69.12 20.98 69.8 20.25C70.48 19.52 70.82 18.48 70.82 17.12V7.70996H75.15Z" fill="#20334B"/>
<path d="M89.46 8.19003C90.43 8.69003 91.19 9.35004 91.74 10.15V7.71003H96.09V24.92C96.09 26.5 95.77 27.92 95.13 29.16C94.49 30.4 93.54 31.39 92.26 32.12C90.98 32.85 89.44 33.21 87.63 33.21C85.2 33.21 83.21 32.64 81.66 31.51C80.11 30.38 79.23 28.84 79.02 26.88H83.31C83.54 27.66 84.02 28.28 84.77 28.75C85.52 29.21 86.43 29.44 87.5 29.44C88.75 29.44 89.77 29.06 90.55 28.31C91.33 27.56 91.72 26.42 91.72 24.9V22.25C91.17 23.05 90.4 23.72 89.42 24.25C88.44 24.78 87.33 25.05 86.07 25.05C84.63 25.05 83.31 24.68 82.12 23.94C80.93 23.2 79.99 22.16 79.3 20.81C78.61 19.46 78.27 17.92 78.27 16.17C78.27 14.44 78.61 12.91 79.3 11.57C79.99 10.23 80.92 9.21004 82.11 8.49004C83.29 7.77004 84.61 7.41003 86.07 7.41003C87.37 7.44003 88.49 7.69003 89.46 8.19003ZM91.12 13.56C90.71 12.81 90.15 12.23 89.45 11.83C88.75 11.43 88 11.23 87.2 11.23C86.4 11.23 85.66 11.43 84.98 11.82C84.3 12.21 83.75 12.78 83.33 13.53C82.91 14.28 82.7 15.17 82.7 16.2C82.7 17.23 82.91 18.13 83.33 18.9C83.75 19.67 84.31 20.26 85 20.67C85.69 21.08 86.42 21.29 87.2 21.29C88 21.29 88.75 21.09 89.45 20.69C90.15 20.29 90.7 19.71 91.12 18.96C91.53 18.21 91.74 17.31 91.74 16.26C91.74 15.21 91.53 14.31 91.12 13.56Z" fill="#20334B"/>
<path d="M113.39 8.31998C114.4 8.88998 115.18 9.71998 115.75 10.82C116.32 11.92 116.6 13.24 116.6 14.78V24.8H112.28V15.36C112.28 14 111.94 12.96 111.26 12.23C110.58 11.5 109.66 11.13 108.48 11.13C107.29 11.13 106.35 11.5 105.66 12.23C104.97 12.96 104.63 14 104.63 15.36V24.8H100.31V1.97998H104.63V9.83998C105.19 9.09998 105.93 8.51998 106.85 8.09998C107.78 7.67998 108.8 7.46998 109.93 7.46998C111.23 7.46998 112.38 7.74998 113.39 8.31998Z" fill="#20334B"/>
<path d="M125.72 11.26V19.52C125.72 20.1 125.86 20.51 126.14 20.77C126.42 21.03 126.89 21.16 127.54 21.16H129.54V24.8H126.83C123.19 24.8 121.37 23.03 121.37 19.5V11.27H119.33V7.71999H121.37V3.48999H125.72V7.71999H129.54V11.27H125.72V11.26Z" fill="#20334B"/>
<path d="M140.49 11.26H137.5V24.8H133.12V11.26H131.18V7.71002H133.12V6.85002C133.12 4.75002 133.72 3.21002 134.91 2.22002C136.1 1.23002 137.9 0.770019 140.31 0.830019V4.47002C139.26 4.45002 138.53 4.62002 138.12 4.99002C137.71 5.36002 137.5 6.03002 137.5 6.99002V7.70002H140.49V11.26Z" fill="#20334B"/>
<path d="M159.43 7.70996V24.8H155.08V22.64C154.52 23.38 153.8 23.96 152.91 24.38C152.02 24.8 151.04 25.01 150 25.01C148.66 25.01 147.48 24.73 146.45 24.16C145.42 23.59 144.62 22.76 144.03 21.66C143.44 20.56 143.15 19.25 143.15 17.73V7.70996H147.47V17.12C147.47 18.48 147.81 19.52 148.49 20.25C149.17 20.98 150.09 21.34 151.27 21.34C152.46 21.34 153.4 20.98 154.08 20.25C154.76 19.52 155.1 18.48 155.1 17.12V7.70996H159.43Z" fill="#20334B"/>
<path d="M168 1.97998V24.8H163.68V1.97998H168Z" fill="#20334B"/>
<path d="M18.95 39.03C18.41 40.04 17.55 40.85 16.39 41.47C15.23 42.09 13.76 42.4 12 42.4H8.39001V50.66H4.07001V29.13H12C13.67 29.13 15.08 29.42 16.26 29.99C17.43 30.57 18.31 31.36 18.9 32.36C19.49 33.37 19.78 34.51 19.78 35.78C19.76 36.94 19.49 38.02 18.95 39.03ZM14.46 38.09C15.04 37.55 15.32 36.78 15.32 35.79C15.32 33.69 14.15 32.64 11.8 32.64H8.38V38.9H11.8C13 38.9 13.88 38.63 14.46 38.09Z" fill="#20334B"/>
<path d="M25.96 49.84C24.64 49.11 23.61 48.08 22.86 46.74C22.11 45.4 21.73 43.86 21.73 42.11C21.73 40.36 22.12 38.82 22.89 37.48C23.66 36.14 24.71 35.11 26.05 34.38C27.39 33.65 28.88 33.28 30.52 33.28C32.16 33.28 33.66 33.65 34.99 34.38C36.33 35.11 37.38 36.14 38.15 37.48C38.92 38.82 39.31 40.36 39.31 42.11C39.31 43.86 38.91 45.4 38.12 46.74C37.33 48.08 36.26 49.11 34.91 49.84C33.56 50.57 32.06 50.93 30.39 50.93C28.76 50.93 27.28 50.57 25.96 49.84ZM32.61 46.6C33.3 46.22 33.85 45.65 34.26 44.89C34.67 44.13 34.88 43.2 34.88 42.11C34.88 40.49 34.45 39.24 33.6 38.36C32.75 37.49 31.7 37.05 30.47 37.05C29.24 37.05 28.2 37.49 27.37 38.36C26.54 39.23 26.12 40.48 26.12 42.11C26.12 43.73 26.53 44.98 27.34 45.86C28.15 46.73 29.17 47.17 30.41 47.17C31.18 47.17 31.92 46.98 32.61 46.6Z" fill="#20334B"/>
<path d="M45.26 50.17C44.15 49.67 43.27 48.98 42.62 48.12C41.97 47.26 41.62 46.3 41.56 45.25H45.91C45.99 45.91 46.32 46.45 46.88 46.88C47.45 47.31 48.15 47.53 48.99 47.53C49.81 47.53 50.45 47.37 50.92 47.04C51.38 46.71 51.61 46.29 51.61 45.78C51.61 45.22 51.33 44.81 50.76 44.53C50.19 44.25 49.3 43.95 48.06 43.62C46.79 43.31 45.74 42.99 44.93 42.66C44.12 42.33 43.42 41.83 42.83 41.15C42.24 40.47 41.95 39.56 41.95 38.41C41.95 37.46 42.22 36.6 42.77 35.82C43.31 35.04 44.1 34.42 45.11 33.97C46.13 33.52 47.32 33.29 48.7 33.29C50.74 33.29 52.36 33.8 53.57 34.82C54.78 35.84 55.45 37.21 55.57 38.94H51.44C51.38 38.26 51.1 37.72 50.59 37.32C50.09 36.92 49.41 36.72 48.57 36.72C47.79 36.72 47.19 36.86 46.77 37.15C46.35 37.44 46.14 37.84 46.14 38.35C46.14 38.93 46.43 39.36 47 39.66C47.58 39.96 48.47 40.26 49.68 40.57C50.91 40.88 51.93 41.2 52.73 41.53C53.53 41.86 54.23 42.37 54.81 43.06C55.4 43.75 55.7 44.66 55.72 45.79C55.72 46.78 55.45 47.66 54.9 48.44C54.35 49.22 53.57 49.83 52.56 50.27C51.54 50.71 50.36 50.93 49 50.93C47.63 50.93 46.38 50.68 45.26 50.17Z" fill="#20334B"/>
<path d="M64.32 37.11V45.37C64.32 45.95 64.46 46.36 64.74 46.62C65.02 46.88 65.49 47.01 66.14 47.01H68.14V50.65H65.43C61.79 50.65 59.97 48.88 59.97 45.35V37.12H57.93V33.57H59.97V29.35H64.32V33.57H68.14V37.12H64.32V37.11Z" fill="#20334B"/>
</svg>
